<mxfile host="app.diagrams.net" modified="2023-02-18T07:37:14.770Z" agent="5.0 (Windows NT 10.0; Win64; x64) AppleWebKit/537.36 (KHTML, like Gecko) Chrome/99.0.4844.51 Safari/537.36" etag="mJBXE8XwyWx55PVqTfWW" version="20.8.20" type="github">
  <diagram name="第 1 页" id="vzAiI0eUAcH9m1X9QbJL">
    <mxGraphModel dx="2049" dy="1011" grid="1" gridSize="10" guides="1" tooltips="1" connect="1" arrows="1" fold="1" page="1" pageScale="1" pageWidth="827" pageHeight="1169" math="0" shadow="0">
      <root>
        <mxCell id="0" />
        <mxCell id="1" parent="0" />
        <mxCell id="G77mc_BoB0gm0R3A3AlD-43" value="" style="group;flipH=0;" vertex="1" connectable="0" parent="1">
          <mxGeometry x="70" width="430" height="445" as="geometry" />
        </mxCell>
        <mxCell id="G77mc_BoB0gm0R3A3AlD-2" value="" style="rounded=1;whiteSpace=wrap;html=1;dashed=1;strokeWidth=2;glass=0;shadow=1;" vertex="1" parent="G77mc_BoB0gm0R3A3AlD-43">
          <mxGeometry x="104.24242424242425" y="57.142857142857146" width="215" height="292.8571428571429" as="geometry" />
        </mxCell>
        <mxCell id="G77mc_BoB0gm0R3A3AlD-3" value="Actions" style="ellipse;whiteSpace=wrap;html=1;aspect=fixed;" vertex="1" parent="G77mc_BoB0gm0R3A3AlD-43">
          <mxGeometry x="156.36363636363635" y="78.57142857142857" width="52.12121212121212" height="52.12121212121212" as="geometry" />
        </mxCell>
        <mxCell id="G77mc_BoB0gm0R3A3AlD-4" value="State" style="ellipse;whiteSpace=wrap;html=1;aspect=fixed;" vertex="1" parent="G77mc_BoB0gm0R3A3AlD-43">
          <mxGeometry x="156.36363636363635" y="278.57142857142856" width="52.12121212121212" height="52.12121212121212" as="geometry" />
        </mxCell>
        <mxCell id="G77mc_BoB0gm0R3A3AlD-14" style="edgeStyle=orthogonalEdgeStyle;rounded=1;orthogonalLoop=1;jettySize=auto;html=1;entryX=1;entryY=0.625;entryDx=0;entryDy=0;entryPerimeter=0;exitX=0.5;exitY=1;exitDx=0;exitDy=0;" edge="1" parent="G77mc_BoB0gm0R3A3AlD-43" source="G77mc_BoB0gm0R3A3AlD-5" target="G77mc_BoB0gm0R3A3AlD-4">
          <mxGeometry relative="1" as="geometry" />
        </mxCell>
        <mxCell id="G77mc_BoB0gm0R3A3AlD-5" value="Mutations" style="ellipse;whiteSpace=wrap;html=1;aspect=fixed;" vertex="1" parent="G77mc_BoB0gm0R3A3AlD-43">
          <mxGeometry x="247.57575757575756" y="178.57142857142858" width="52.12121212121212" height="52.12121212121212" as="geometry" />
        </mxCell>
        <mxCell id="G77mc_BoB0gm0R3A3AlD-13" style="edgeStyle=orthogonalEdgeStyle;rounded=1;orthogonalLoop=1;jettySize=auto;html=1;entryX=0.5;entryY=0;entryDx=0;entryDy=0;" edge="1" parent="G77mc_BoB0gm0R3A3AlD-43" source="G77mc_BoB0gm0R3A3AlD-3" target="G77mc_BoB0gm0R3A3AlD-5">
          <mxGeometry relative="1" as="geometry" />
        </mxCell>
        <mxCell id="G77mc_BoB0gm0R3A3AlD-7" style="edgeStyle=orthogonalEdgeStyle;rounded=1;orthogonalLoop=1;jettySize=auto;html=1;entryX=0;entryY=0.5;entryDx=0;entryDy=0;" edge="1" parent="G77mc_BoB0gm0R3A3AlD-43" source="G77mc_BoB0gm0R3A3AlD-6" target="G77mc_BoB0gm0R3A3AlD-3">
          <mxGeometry relative="1" as="geometry">
            <Array as="points">
              <mxPoint x="59" y="107" />
              <mxPoint x="150" y="107" />
              <mxPoint x="150" y="105" />
            </Array>
          </mxGeometry>
        </mxCell>
        <mxCell id="G77mc_BoB0gm0R3A3AlD-6" value="Components" style="rounded=1;whiteSpace=wrap;html=1;" vertex="1" parent="G77mc_BoB0gm0R3A3AlD-43">
          <mxGeometry y="178.57142857142858" width="117.27272727272727" height="28.571428571428573" as="geometry" />
        </mxCell>
        <mxCell id="G77mc_BoB0gm0R3A3AlD-8" style="edgeStyle=orthogonalEdgeStyle;rounded=1;orthogonalLoop=1;jettySize=auto;html=1;entryX=0.5;entryY=1;entryDx=0;entryDy=0;" edge="1" parent="G77mc_BoB0gm0R3A3AlD-43" source="G77mc_BoB0gm0R3A3AlD-4" target="G77mc_BoB0gm0R3A3AlD-6">
          <mxGeometry relative="1" as="geometry" />
        </mxCell>
        <mxCell id="G77mc_BoB0gm0R3A3AlD-16" value="Backend API" style="rounded=1;whiteSpace=wrap;html=1;" vertex="1" parent="G77mc_BoB0gm0R3A3AlD-43">
          <mxGeometry x="130.3030303030303" width="104.24242424242424" height="28.571428571428573" as="geometry" />
        </mxCell>
        <mxCell id="G77mc_BoB0gm0R3A3AlD-17" value="Devtools" style="rounded=1;whiteSpace=wrap;html=1;" vertex="1" parent="G77mc_BoB0gm0R3A3AlD-43">
          <mxGeometry x="345.3030303030303" y="192.85714285714286" width="84.69696969696969" height="28.571428571428573" as="geometry" />
        </mxCell>
        <mxCell id="G77mc_BoB0gm0R3A3AlD-20" value="" style="endArrow=classic;startArrow=classic;html=1;rounded=1;shadow=0;endSize=5;exitX=0.5;exitY=0;exitDx=0;exitDy=0;dashed=1;" edge="1" parent="G77mc_BoB0gm0R3A3AlD-43" source="G77mc_BoB0gm0R3A3AlD-3" target="G77mc_BoB0gm0R3A3AlD-16">
          <mxGeometry width="50" height="50" relative="1" as="geometry">
            <mxPoint x="149.84848484848487" y="207.14285714285714" as="sourcePoint" />
            <mxPoint x="182.4242424242424" y="171.42857142857144" as="targetPoint" />
          </mxGeometry>
        </mxCell>
        <mxCell id="G77mc_BoB0gm0R3A3AlD-21" value="" style="endArrow=classic;startArrow=classic;html=1;rounded=1;shadow=0;endSize=5;exitX=1;exitY=0.5;exitDx=0;exitDy=0;dashed=1;entryX=0;entryY=0.5;entryDx=0;entryDy=0;" edge="1" parent="G77mc_BoB0gm0R3A3AlD-43" source="G77mc_BoB0gm0R3A3AlD-5" target="G77mc_BoB0gm0R3A3AlD-17">
          <mxGeometry width="50" height="50" relative="1" as="geometry">
            <mxPoint x="188.93939393939394" y="85.71428571428572" as="sourcePoint" />
            <mxPoint x="188.93939393939394" y="35.714285714285715" as="targetPoint" />
          </mxGeometry>
        </mxCell>
        <mxCell id="G77mc_BoB0gm0R3A3AlD-24" value="Vuex" style="rounded=1;whiteSpace=wrap;html=1;shadow=1;glass=0;strokeWidth=2;" vertex="1" parent="G77mc_BoB0gm0R3A3AlD-43">
          <mxGeometry x="290" y="57.13999999999999" width="70" height="19" as="geometry" />
        </mxCell>
        <mxCell id="G77mc_BoB0gm0R3A3AlD-41" value="传统Vuex组件状态管理方式" style="text;html=1;align=center;verticalAlign=middle;resizable=0;points=[];autosize=1;strokeColor=none;fillColor=none;fontSize=20;" vertex="1" parent="G77mc_BoB0gm0R3A3AlD-43">
          <mxGeometry x="47.420000000000016" y="405" width="270" height="40" as="geometry" />
        </mxCell>
        <mxCell id="G77mc_BoB0gm0R3A3AlD-45" value="" style="group;flipH=0;" vertex="1" connectable="0" parent="1">
          <mxGeometry x="550" width="404.70000000000005" height="448.57" as="geometry" />
        </mxCell>
        <mxCell id="G77mc_BoB0gm0R3A3AlD-35" value="Backend API" style="rounded=1;whiteSpace=wrap;html=1;" vertex="1" parent="G77mc_BoB0gm0R3A3AlD-45">
          <mxGeometry x="130.30303030303025" width="104.24242424242424" height="28.571428571428573" as="geometry" />
        </mxCell>
        <mxCell id="G77mc_BoB0gm0R3A3AlD-26" value="" style="rounded=1;whiteSpace=wrap;html=1;dashed=1;strokeWidth=2;glass=0;shadow=1;" vertex="1" parent="G77mc_BoB0gm0R3A3AlD-45">
          <mxGeometry x="104.24000000000001" y="57.14" width="175.76" height="292.86" as="geometry" />
        </mxCell>
        <mxCell id="G77mc_BoB0gm0R3A3AlD-27" value="Actions" style="ellipse;whiteSpace=wrap;html=1;aspect=fixed;" vertex="1" parent="G77mc_BoB0gm0R3A3AlD-45">
          <mxGeometry x="156.36363636363637" y="78.57142857142857" width="52.12121212121212" height="52.12121212121212" as="geometry" />
        </mxCell>
        <mxCell id="G77mc_BoB0gm0R3A3AlD-28" value="State" style="ellipse;whiteSpace=wrap;html=1;aspect=fixed;" vertex="1" parent="G77mc_BoB0gm0R3A3AlD-45">
          <mxGeometry x="156.36363636363637" y="278.57142857142856" width="52.12121212121212" height="52.12121212121212" as="geometry" />
        </mxCell>
        <mxCell id="G77mc_BoB0gm0R3A3AlD-40" style="edgeStyle=orthogonalEdgeStyle;rounded=1;orthogonalLoop=1;jettySize=auto;html=1;entryX=1;entryY=0.5;entryDx=0;entryDy=0;shadow=0;endSize=5;" edge="1" parent="G77mc_BoB0gm0R3A3AlD-45" source="G77mc_BoB0gm0R3A3AlD-27" target="G77mc_BoB0gm0R3A3AlD-28">
          <mxGeometry relative="1" as="geometry">
            <Array as="points">
              <mxPoint x="250" y="105" />
              <mxPoint x="250" y="305" />
            </Array>
          </mxGeometry>
        </mxCell>
        <mxCell id="G77mc_BoB0gm0R3A3AlD-32" style="edgeStyle=orthogonalEdgeStyle;rounded=1;orthogonalLoop=1;jettySize=auto;html=1;entryX=0;entryY=0.5;entryDx=0;entryDy=0;" edge="1" parent="G77mc_BoB0gm0R3A3AlD-45" source="G77mc_BoB0gm0R3A3AlD-33" target="G77mc_BoB0gm0R3A3AlD-27">
          <mxGeometry relative="1" as="geometry">
            <Array as="points">
              <mxPoint x="59" y="107" />
              <mxPoint x="150" y="107" />
              <mxPoint x="150" y="105" />
            </Array>
          </mxGeometry>
        </mxCell>
        <mxCell id="G77mc_BoB0gm0R3A3AlD-33" value="Components" style="rounded=1;whiteSpace=wrap;html=1;" vertex="1" parent="G77mc_BoB0gm0R3A3AlD-45">
          <mxGeometry y="178.57142857142858" width="117.27272727272727" height="28.571428571428573" as="geometry" />
        </mxCell>
        <mxCell id="G77mc_BoB0gm0R3A3AlD-34" style="edgeStyle=orthogonalEdgeStyle;rounded=1;orthogonalLoop=1;jettySize=auto;html=1;entryX=0.5;entryY=1;entryDx=0;entryDy=0;" edge="1" parent="G77mc_BoB0gm0R3A3AlD-45" source="G77mc_BoB0gm0R3A3AlD-28" target="G77mc_BoB0gm0R3A3AlD-33">
          <mxGeometry relative="1" as="geometry" />
        </mxCell>
        <mxCell id="G77mc_BoB0gm0R3A3AlD-36" value="Devtools" style="rounded=1;whiteSpace=wrap;html=1;" vertex="1" parent="G77mc_BoB0gm0R3A3AlD-45">
          <mxGeometry x="320.0030303030303" y="192.8571428571429" width="84.69696969696969" height="28.571428571428573" as="geometry" />
        </mxCell>
        <mxCell id="G77mc_BoB0gm0R3A3AlD-37" value="" style="endArrow=classic;startArrow=classic;html=1;rounded=1;shadow=0;endSize=5;exitX=0.5;exitY=0;exitDx=0;exitDy=0;dashed=1;" edge="1" parent="G77mc_BoB0gm0R3A3AlD-45" source="G77mc_BoB0gm0R3A3AlD-27" target="G77mc_BoB0gm0R3A3AlD-35">
          <mxGeometry width="50" height="50" relative="1" as="geometry">
            <mxPoint x="149.84848484848487" y="207.1428571428571" as="sourcePoint" />
            <mxPoint x="182.42424242424238" y="171.42857142857144" as="targetPoint" />
          </mxGeometry>
        </mxCell>
        <mxCell id="G77mc_BoB0gm0R3A3AlD-38" value="" style="endArrow=classic;startArrow=classic;html=1;rounded=1;shadow=0;endSize=5;exitX=0.5;exitY=1;exitDx=0;exitDy=0;dashed=1;entryX=0.5;entryY=1;entryDx=0;entryDy=0;" edge="1" parent="G77mc_BoB0gm0R3A3AlD-45" source="G77mc_BoB0gm0R3A3AlD-28" target="G77mc_BoB0gm0R3A3AlD-36">
          <mxGeometry width="50" height="50" relative="1" as="geometry">
            <mxPoint x="299.6969696969645" y="204.63203463203467" as="sourcePoint" />
            <mxPoint x="188.939393939394" y="35.714285714285715" as="targetPoint" />
            <Array as="points">
              <mxPoint x="200" y="340" />
              <mxPoint x="270" y="331" />
              <mxPoint x="350" y="305" />
            </Array>
          </mxGeometry>
        </mxCell>
        <mxCell id="G77mc_BoB0gm0R3A3AlD-39" value="Pinia" style="rounded=1;whiteSpace=wrap;html=1;shadow=1;glass=0;strokeWidth=2;" vertex="1" parent="G77mc_BoB0gm0R3A3AlD-45">
          <mxGeometry x="260" y="57.140000000000015" width="70" height="19" as="geometry" />
        </mxCell>
        <mxCell id="G77mc_BoB0gm0R3A3AlD-42" value="Pinia组件状态管理方式" style="text;html=1;align=center;verticalAlign=middle;resizable=0;points=[];autosize=1;strokeColor=none;fillColor=none;fontSize=20;" vertex="1" parent="G77mc_BoB0gm0R3A3AlD-45">
          <mxGeometry x="77.12" y="408.57" width="230" height="40" as="geometry" />
        </mxCell>
      </root>
    </mxGraphModel>
  </diagram>
</mxfile>
